HIERARCHY
ROOT Hips
{
	OFFSET 0.00 0.00 0.00
	CHANNELS 6 Xposition Yposition Zposition Xrotation Yrotation Zrotation
	JOINT Spine
	{
		OFFSET 0.00000 1.75157 2.62736
		CHANNELS 3 Xrotation Yrotation Zrotation
		JOINT Spine1
		{
			OFFSET 0.00000 0.60831 3.44992
			CHANNELS 3 Xrotation Yrotation Zrotation
			JOINT Spine2
			{
				OFFSET 0.00000 0.30532 3.48981
				CHANNELS 3 Xrotation Yrotation Zrotation
				JOINT Spine3
				{
					OFFSET 0.00000 0.00000 3.50314
					CHANNELS 3 Xrotation Yrotation Zrotation
					JOINT Neck
					{
						OFFSET 0.00000 -1.31367 9.19575
						CHANNELS 3 Xrotation Yrotation Zrotation
						JOINT Head
						{
							OFFSET 0.00000 -0.83643 4.74364
							CHANNELS 3 Xrotation Yrotation Zrotation
							End Site
							{
								OFFSET 0.00000 0.00001 5.67071
							}
						}
					}
					JOINT RightShoulder
					{
						OFFSET -1.05974 -1.76624 5.72262
						CHANNELS 3 Xrotation Yrotation Zrotation
						JOINT RightArm
						{
							OFFSET -5.26340 0.00000 0.00000
							CHANNELS 3 Xrotation Yrotation Zrotation
							JOINT RightForeArm
							{
								OFFSET -10.14667 0.00000 0.00000
								CHANNELS 3 Xrotation Yrotation Zrotation
								JOINT RightHand
								{
									OFFSET -8.53343 0.00000 0.00000
									CHANNELS 3 Xrotation Yrotation Zrotation
									JOINT RightHandEnd
									{
										OFFSET -2.46135 0.00000 0.00000
										CHANNELS 3 Xrotation Yrotation Zrotation
										End Site
										{
											OFFSET -2.46135 0.00000 0.00000
										}
									}
									JOINT RightHandThumb1
									{
										OFFSET -0.98454 -1.64090 -0.65636
										CHANNELS 3 Yrotation Xrotation Zrotation
										End Site
										{
											OFFSET -2.37748 -0.63704 0.00000
										}
									}
								}
							}
						}
					}
					JOINT LeftShoulder
					{
						OFFSET 1.05974 -1.76624 5.72262
						CHANNELS 3 Xrotation Yrotation Zrotation
						JOINT LeftArm
						{
							OFFSET 5.26340 0.00000 0.00000
							CHANNELS 3 Xrotation Yrotation Zrotation
							JOINT LeftForeArm
							{
								OFFSET 10.14667 0.00000 0.00000
								CHANNELS 3 Xrotation Yrotation Zrotation
								JOINT LeftHand
								{
									OFFSET 8.53343 0.00000 0.00000
									CHANNELS 3 Xrotation Yrotation Zrotation
									JOINT LeftHandEnd
									{
										OFFSET 2.46135 0.00000 0.00000
										CHANNELS 3 Xrotation Yrotation Zrotation
										End Site
										{
											OFFSET 2.46135 0.00000 0.00000
										}
									}
									JOINT LeftHandThumb1
									{
										OFFSET 0.98454 -1.64090 -0.65636
										CHANNELS 3 Yrotation Xrotation Zrotation
										End Site
										{
											OFFSET 2.37748 -0.63704 0.00000
										}
									}
								}
							}
						}
					}
				}
			}
		}
	}
	JOINT RightUpLeg
	{
		OFFSET -3.14391 0.00000 -0.91845
		CHANNELS 3 Xrotation Yrotation Zrotation
		JOINT RightLeg
		{
			OFFSET 0.00000 0.00000 -14.43197
			CHANNELS 3 Xrotation Yrotation Zrotation
			JOINT RightFoot
			{
				OFFSET 0.00000 0.00000 -14.31693
				CHANNELS 3 Xrotation Yrotation Zrotation
				JOINT RightToeBase
				{
					OFFSET 0.00000 -4.51635 -1.64382
					CHANNELS 3 Xrotation Yrotation Zrotation
					End Site
					{
						OFFSET 0.00000 -2.54339 -0.00000
					}
				}
			}
		}
	}
	JOINT LeftUpLeg
	{
		OFFSET 3.14391 0.00000 -0.91845
		CHANNELS 3 Xrotation Yrotation Zrotation
		JOINT LeftLeg
		{
			OFFSET 0.00000 0.00000 -14.43197
			CHANNELS 3 Xrotation Yrotation Zrotation
			JOINT LeftFoot
			{
				OFFSET 0.00000 0.00000 -14.31693
				CHANNELS 3 Xrotation Yrotation Zrotation
				JOINT LeftToeBase
				{
					OFFSET 0.00000 -4.51635 -1.64382
					CHANNELS 3 Xrotation Yrotation Zrotation
					End Site
					{
						OFFSET 0.00000 -2.54339 -0.00000
					}
				}
			}
		}
	}
}
MOTION
Frames: 17
Frame Time: 0.008342
 19.2321 -14.8531 31.7922 2.4298 -0.4334 -90.2760 -0.3620 -2.1357 0.0284 -0.4605 -1.0637 -0.1970 2.6131 -1.4947 -1.7550 0.4370 -0.3667 -0.0148 -9.4504 3.9948 1.1904 -1.8248 1.2227 -1.6621 -1.0147 12.7836 6.0802 -5.4869 -5.8867 -1.3223 0.0000 0.0000 0.3628 1.4789 7.4986 -8.9517 0.0000 -0.0000 0.0000 0.0000 -0.0000 0.0000 0.2563 -10.1967 -4.9652 -7.3511 15.6465 17.2687 -0.0000 -0.0000 -9.9064 -5.5462 -1.0811 4.3717 0.0000 0.0000 -0.0000 0.0000 0.0000 -0.0000 -4.2806 0.7973 -8.1910 9.2009 0.0000 0.0000 -7.3951 -4.1005 -8.7888 1.7202 0.0000 0.0000 -1.3186 -8.9936 29.7943 4.8101 0.0000 0.0000 -1.1069 5.4195 0.0701 -0.3520 0.0000 -0.0000
 19.2336 -14.8592 31.7930 2.4457 -0.4542 -90.2659 -0.3631 -2.1155 0.0277 -0.4603 -1.0541 -0.1967 2.6054 -1.5023 -1.7656 0.4358 -0.3675 -0.0128 -9.4648 3.9340 1.1533 -1.8273 1.2215 -1.6484 -1.0212 12.7408 6.0767 -5.5030 -5.9077 -1.3311 0.0000 0.0000 0.3613 1.4674 7.5110 -8.9395 -0.0000 0.0000 0.0000 -0.0000 -0.0000 0.0000 0.2631 -10.2233 -4.9608 -7.3629 15.6177 17.2341 -0.0000 -0.0000 -9.9053 -5.5935 -1.0396 4.3758 0.0000 -0.0000 -0.0000 0.0000 -0.0000 -0.0000 -4.2620 0.7914 -8.2424 9.1173 0.0000 0.0000 -7.3481 -4.1261 -8.7558 1.7262 0.0000 0.0000 -1.3134 -8.9890 29.8060 4.7446 0.0000 0.0000 -1.0760 5.4355 0.0353 -0.3285 0.0000 -0.0000
 19.2354 -14.8674 31.7942 2.4671 -0.4794 -90.2497 -0.3628 -2.0899 0.0262 -0.4595 -1.0423 -0.1960 2.5953 -1.5104 -1.7790 0.4337 -0.3687 -0.0107 -9.4819 3.8554 1.1032 -1.8317 1.2175 -1.6315 -1.0279 12.6858 6.0684 -5.5281 -5.9360 -1.3428 0.0000 0.0000 0.3571 1.4558 7.5203 -8.9261 -0.0000 -0.0000 0.0000 0.0000 -0.0000 0.0000 0.2720 -10.2591 -4.9584 -7.3721 15.5828 17.1865 -0.0000 -0.0000 -9.9030 -5.6551 -0.9852 4.3779 -0.0000 -0.0000 0.0000 -0.0000 0.0000 0.0000 -4.2304 0.7828 -8.3103 8.9986 0.0000 0.0000 -7.2825 -4.1616 -8.7148 1.7323 0.0000 0.0000 -1.3059 -8.9830 29.8122 4.6606 0.0000 0.0000 -1.0365 5.4555 -0.0051 -0.3008 0.0000 -0.0000
 19.2376 -14.8779 31.7957 2.4927 -0.5094 -90.2273 -0.3603 -2.0586 0.0242 -0.4584 -1.0273 -0.1951 2.5805 -1.5201 -1.7960 0.4314 -0.3691 -0.0079 -9.5017 3.7586 1.0403 -1.8372 1.2116 -1.6120 -1.0345 12.6204 6.0561 -5.5621 -5.9735 -1.3586 0.0000 0.0000 0.3497 1.4463 7.5279 -8.9160 0.0000 -0.0000 0.0000 0.0000 -0.0000 0.0000 0.2821 -10.3044 -4.9584 -7.3785 15.5420 17.1275 -0.0000 -0.0000 -9.9015 -5.7258 -0.9185 4.3788 0.0000 0.0000 -0.0000 -0.0000 0.0000 0.0000 -4.1868 0.7732 -8.3934 8.8455 0.0000 0.0000 -7.1985 -4.2069 -8.6672 1.7362 0.0000 0.0000 -1.2975 -8.9741 29.8098 4.5596 0.0000 0.0000 -0.9887 5.4797 -0.0481 -0.2692 0.0000 -0.0000
 19.2404 -14.8907 31.7976 2.5212 -0.5464 -90.1986 -0.3579 -2.0216 0.0220 -0.4569 -1.0088 -0.1938 2.5621 -1.5313 -1.8159 0.4282 -0.3696 -0.0048 -9.5237 3.6455 0.9657 -1.8432 1.2039 -1.5907 -1.0406 12.5448 6.0399 -5.6044 -6.0172 -1.3789 0.0000 0.0000 0.3391 1.4374 7.5320 -8.9104 -0.0000 0.0000 -0.0000 0.0000 -0.0000 -0.0000 0.2921 -10.3570 -4.9625 -7.3781 15.4961 17.0576 -0.0000 -0.0000 -9.9005 -5.8024 -0.8421 4.3769 -0.0000 -0.0000 0.0000 0.0000 -0.0000 0.0000 -4.1348 0.7637 -8.4913 8.6599 0.0000 0.0000 -7.0966 -4.2618 -8.6131 1.7384 0.0000 0.0000 -1.2932 -8.9621 29.7957 4.4458 0.0000 0.0000 -0.9341 5.5077 -0.0903 -0.2340 0.0000 -0.0000
 19.2438 -14.9056 31.7998 2.5521 -0.5900 -90.1634 -0.3555 -1.9798 0.0197 -0.4549 -0.9870 -0.1923 2.5391 -1.5435 -1.8385 0.4241 -0.3699 -0.0015 -9.5471 3.5176 0.8802 -1.8487 1.1954 -1.5682 -1.0460 12.4609 6.0193 -5.6568 -6.0661 -1.4040 0.0000 0.0000 0.3256 1.4302 7.5325 -8.9114 0.0000 0.0000 0.0000 -0.0000 0.0000 -0.0000 0.3012 -10.4167 -4.9715 -7.3704 15.4471 16.9786 -0.0000 -0.0000 -9.9005 -5.8786 -0.7596 4.3721 0.0000 0.0000 -0.0000 0.0000 0.0000 0.0000 -4.0748 0.7546 -8.6024 8.4436 0.0000 0.0000 -6.9781 -4.3254 -8.5538 1.7396 0.0000 0.0000 -1.2947 -8.9472 29.7678 4.3241 0.0000 0.0000 -0.8748 5.5391 -0.1290 -0.1969 0.0000 -0.0000
 19.2478 -14.9225 31.8023 2.5840 -0.6399 -90.1222 -0.3529 -1.9343 0.0171 -0.4525 -0.9624 -0.1905 2.5108 -1.5560 -1.8629 0.4192 -0.3700 0.0018 -9.5705 3.3772 0.7854 -1.8527 1.1869 -1.5450 -1.0502 12.3706 5.9945 -5.7169 -6.1190 -1.4336 0.0000 0.0000 0.3092 1.4287 7.5305 -8.9219 -0.0000 0.0000 0.0000 0.0000 -0.0000 -0.0000 0.3089 -10.4818 -4.9861 -7.3536 15.3960 16.8918 -0.0000 -0.0000 -9.9011 -5.9516 -0.6739 4.3627 -0.0000 -0.0000 0.0000 0.0000 0.0000 0.0000 -4.0078 0.7469 -8.7248 8.1997 0.0000 0.0000 -6.8445 -4.3967 -8.4903 1.7409 0.0000 0.0000 -1.3037 -8.9293 29.7252 4.1988 0.0000 0.0000 -0.8126 5.5731 -0.1616 -0.1582 0.0000 -0.0000
 19.2523 -14.9411 31.8048 2.6159 -0.6948 -90.0759 -0.3499 -1.8860 0.0147 -0.4491 -0.9356 -0.1883 2.4768 -1.5684 -1.8883 0.4133 -0.3697 0.0051 -9.5927 3.2266 0.6835 -1.8544 1.1796 -1.5219 -1.0530 12.2755 5.9658 -5.7838 -6.1726 -1.4673 0.0000 0.0000 0.2903 1.4310 7.5272 -8.9423 -0.0000 0.0000 0.0000 -0.0000 -0.0000 0.0000 0.3139 -10.5503 -5.0069 -7.3270 15.3440 16.7998 -0.0000 -0.0000 -9.9029 -6.0152 -0.5895 4.3497 -0.0000 -0.0000 0.0000 0.0000 0.0000 -0.0000 -3.9349 0.7410 -8.8564 7.9321 0.0000 0.0000 -6.6982 -4.4745 -8.4234 1.7431 0.0000 0.0000 -1.3212 -8.9088 29.6694 4.0750 0.0000 0.0000 -0.7499 5.6089 -0.1876 -0.1203 0.0000 -0.0000
 19.2573 -14.9609 31.8075 2.6469 -0.7542 -90.0255 -0.3462 -1.8359 0.0126 -0.4448 -0.9075 -0.1859 2.4364 -1.5801 -1.9139 0.4064 -0.3687 0.0082 -9.6121 3.0684 0.5753 -1.8529 1.1743 -1.4990 -1.0546 12.1769 5.9337 -5.8567 -6.2246 -1.5048 0.0000 0.0000 0.2702 1.4388 7.5240 -8.9741 0.0000 0.0000 0.0000 0.0000 0.0000 -0.0000 0.3153 -10.6203 -5.0343 -7.2905 15.2916 16.7045 -0.0000 -0.0000 -9.9057 -6.0656 -0.5104 4.3331 0.0000 0.0000 0.0000 -0.0000 -0.0000 0.0000 -3.8570 0.7371 -8.9945 7.6447 0.0000 0.0000 -6.5415 -4.5577 -8.3542 1.7466 0.0000 0.0000 -1.3480 -8.8861 29.6034 3.9570 0.0000 0.0000 -0.6885 5.6454 -0.2074 -0.0831 0.0000 -0.0000
 19.2626 -14.9818 31.8102 2.6761 -0.8172 -89.9722 -0.3425 -1.7852 0.0107 -0.4395 -0.8784 -0.1833 2.3903 -1.5908 -1.9389 0.3983 -0.3675 0.0111 -9.6275 2.9054 0.4640 -1.8478 1.1718 -1.4773 -1.0552 12.0760 5.8989 -5.9337 -6.2718 -1.5451 0.0000 0.0000 0.2492 1.4520 7.5225 -9.0158 -0.0000 0.0000 -0.0000 -0.0000 -0.0000 -0.0000 0.3125 -10.6892 -5.0678 -7.2457 15.2385 16.6081 -0.0000 -0.0000 -9.9094 -6.0997 -0.4400 4.3131 0.0000 0.0000 -0.0000 0.0000 0.0000 0.0000 -3.7756 0.7360 -9.1376 7.3419 0.0000 0.0000 -6.3769 -4.6453 -8.2825 1.7543 0.0000 0.0000 -1.3845 -8.8613 29.5316 3.8481 0.0000 0.0000 -0.6301 5.6811 -0.2227 -0.0479 0.0000 -0.0000
 19.2682 -15.0033 31.8128 2.7035 -0.8850 -89.9175 -0.3397 -1.7346 0.0095 -0.4338 -0.8502 -0.1805 2.3379 -1.5997 -1.9625 0.3894 -0.3657 0.0135 -9.6379 2.7400 0.3507 -1.8384 1.1728 -1.4569 -1.0560 11.9730 5.8622 -6.0117 -6.3116 -1.5875 0.0000 0.0000 0.2288 1.4709 7.5259 -9.0659 0.0000 -0.0000 -0.0000 0.0000 0.0000 -0.0000 0.3042 -10.7542 -5.1069 -7.1937 15.1831 16.5124 -0.0000 -0.0000 -9.9145 -6.1158 -0.3813 4.2921 -0.0000 -0.0000 0.0000 0.0000 -0.0000 0.0000 -3.6938 0.7366 -9.2827 7.0272 0.0000 0.0000 -6.2061 -4.7366 -8.2100 1.7667 0.0000 0.0000 -1.4329 -8.8359 29.4588 3.7512 0.0000 0.0000 -0.5761 5.7142 -0.2358 -0.0151 0.0000 -0.0000
 19.2742 -15.0253 31.8154 2.7282 -0.9579 -89.8627 -0.3390 -1.6849 0.0088 -0.4291 -0.8229 -0.1783 2.2815 -1.6065 -1.9829 0.3793 -0.3635 0.0156 -9.6424 2.5751 0.2376 -1.8245 1.1765 -1.4383 -1.0578 11.8688 5.8238 -6.0904 -6.3423 -1.6306 0.0000 0.0000 0.2096 1.4954 7.5344 -9.1224 -0.0000 0.0000 0.0000 -0.0000 -0.0000 0.0000 0.2895 -10.8127 -5.1507 -7.1365 15.1240 16.4183 -0.0000 -0.0000 -9.9208 -6.1137 -0.3361 4.2712 0.0000 -0.0000 0.0000 -0.0000 -0.0000 -0.0000 -3.6135 0.7400 -9.4274 6.7039 0.0000 0.0000 -6.0314 -4.8308 -8.1371 1.7847 0.0000 0.0000 -1.4931 -8.8089 29.3911 3.6665 0.0000 0.0000 -0.5266 5.7432 -0.2501 0.0148 0.0000 0.0000
 19.2803 -15.0476 31.8178 2.7502 -1.0352 -89.8097 -0.3402 -1.6363 0.0090 -0.4248 -0.7975 -0.1760 2.2197 -1.6112 -2.0003 0.3687 -0.3611 0.0172 -9.6401 2.4133 0.1256 -1.8062 1.1826 -1.4221 -1.0618 11.7625 5.7848 -6.1674 -6.3609 -1.6738 0.0000 0.0000 0.1925 1.5241 7.5497 -9.1818 0.0000 -0.0000 0.0000 0.0000 -0.0000 -0.0000 0.2684 -10.8621 -5.1977 -7.0764 15.0588 16.3263 -0.0000 -0.0000 -9.9284 -6.0972 -0.3053 4.2520 0.0000 -0.0000 0.0000 -0.0000 0.0000 -0.0000 -3.5351 0.7455 -9.5693 6.3740 0.0000 0.0000 -5.8539 -4.9277 -8.0646 1.8097 0.0000 0.0000 -1.5626 -8.7802 29.3354 3.5920 0.0000 0.0000 -0.4810 5.7669 -0.2701 0.0418 0.0000 0.0000
 19.2861 -15.0700 31.8201 2.7700 -1.1135 -89.7592 -0.3417 -1.5901 0.0095 -0.4199 -0.7725 -0.1726 2.1526 -1.6155 -2.0166 0.3574 -0.3584 0.0194 -9.6290 2.2563 0.0164 -1.7845 1.1896 -1.4084 -1.0696 11.6555 5.7477 -6.2398 -6.3684 -1.7184 0.0000 0.0000 0.1799 1.5553 7.5720 -9.2407 0.0000 -0.0000 0.0000 0.0000 -0.0000 -0.0000 0.2415 -10.9012 -5.2468 -7.0175 14.9854 16.2375 -0.0000 -0.0000 -9.9375 -6.0651 -0.2886 4.2356 0.0000 -0.0000 0.0000 -0.0000 0.0000 0.0000 -3.4528 0.7521 -9.7059 6.0349 0.0000 0.0000 -5.6735 -5.0270 -7.9941 1.8408 0.0000 0.0000 -1.6352 -8.7500 29.2980 3.5239 0.0000 0.0000 -0.4385 5.7845 -0.3010 0.0654 0.0000 0.0000
 19.2920 -15.0924 31.8223 2.7883 -1.1977 -89.7127 -0.3471 -1.5455 0.0110 -0.4178 -0.7513 -0.1699 2.0826 -1.6169 -2.0284 0.3459 -0.3556 0.0211 -9.6101 2.1057 -0.0894 -1.7592 1.1971 -1.3977 -1.0814 11.5457 5.7106 -6.3074 -6.3629 -1.7607 0.0000 0.0000 0.1704 1.5884 7.6019 -9.2950 0.0000 0.0000 -0.0000 -0.0000 -0.0000 -0.0000 0.2082 -10.9277 -5.2962 -6.9608 14.9010 16.1511 -0.0000 -0.0000 -9.9488 -6.0249 -0.2858 4.2247 -0.0000 0.0000 -0.0000 0.0000 0.0000 -0.0000 -3.3742 0.7590 -9.8322 5.6896 0.0000 0.0000 -5.4910 -5.1284 -7.9294 1.8786 0.0000 0.0000 -1.7151 -8.7184 29.2835 3.4603 0.0000 0.0000 -0.3984 5.7944 -0.3459 0.0866 0.0000 0.0000
 19.2976 -15.1149 31.8243 2.8045 -1.2854 -89.6711 -0.3557 -1.5024 0.0128 -0.4170 -0.7328 -0.1669 2.0094 -1.6166 -2.0373 0.3341 -0.3524 0.0227 -9.5822 1.9627 -0.1912 -1.7315 1.2031 -1.3901 -1.0988 11.4333 5.6760 -6.3689 -6.3455 -1.8015 0.0000 0.0000 0.1650 1.6202 7.6370 -9.3417 -0.0000 -0.0000 -0.0000 0.0000 -0.0000 -0.0000 0.1688 -10.9414 -5.3446 -6.9083 14.8041 16.0675 -0.0000 -0.0000 -9.9621 -5.9800 -0.2951 4.2188 0.0000 -0.0000 -0.0000 0.0000 -0.0000 0.0000 -3.2948 0.7666 -9.9459 5.3355 0.0000 0.0000 -5.3061 -5.2317 -7.8724 1.9208 0.0000 0.0000 -1.7960 -8.6836 29.2954 3.3950 0.0000 0.0000 -0.3584 5.7968 -0.4084 0.1047 0.0000 0.0000
 19.3028 -15.1374 31.8262 2.8207 -1.3789 -89.6348 -0.3689 -1.4618 0.0148 -0.4196 -0.7167 -0.1635 1.9342 -1.6155 -2.0433 0.3226 -0.3490 0.0246 -9.5458 1.8294 -0.2884 -1.7012 1.2062 -1.3858 -1.1211 11.3181 5.6429 -6.4239 -6.3168 -1.8393 0.0000 0.0000 0.1638 1.6508 7.6771 -9.3777 -0.0000 -0.0000 -0.0000 -0.0000 -0.0000 0.0000 0.1244 -10.9413 -5.3904 -6.8620 14.6929 15.9852 -0.0000 -0.0000 -9.9778 -5.9354 -0.3146 4.2188 0.0000 -0.0000 0.0000 0.0000 -0.0000 0.0000 -3.2168 0.7722 -10.0410 4.9719 0.0000 0.0000 -5.1180 -5.3361 -7.8285 1.9674 0.0000 0.0000 -1.8787 -8.6472 29.3352 3.3254 0.0000 0.0000 -0.3183 5.7908 -0.4901 0.1214 0.0000 0.0000
